<mxfile host="app.diagrams.net" agent="Mozilla/5.0 (Windows NT 10.0; Win64; x64) AppleWebKit/537.36 (KHTML, like Gecko) Chrome/122.0.0.0 Safari/537.36" version="27.2.0">
  <diagram name="第 1 页" id="mgjdfwV87sD4iu_dyT5_">
    <mxGraphModel dx="-108" dy="-775" grid="0" gridSize="10" guides="1" tooltips="1" connect="1" arrows="1" fold="1" page="1" pageScale="1" pageWidth="827" pageHeight="1169" math="0" shadow="0">
      <root>
        <mxCell id="0" />
        <mxCell id="1" parent="0" />
        <mxCell id="jGFvWOt6PlKy6V6tAk1P-1" value="&lt;font&gt;开始&lt;/font&gt;" style="shape=mxgraph.flowchart.terminator;strokeWidth=1;gradientColor=none;gradientDirection=north;fontStyle=0;html=1;strokeColor=default;fontFamily=宋体;fontSize=20;" vertex="1" parent="1">
          <mxGeometry x="1368.25" y="1332" width="120" height="28" as="geometry" />
        </mxCell>
        <mxCell id="jGFvWOt6PlKy6V6tAk1P-2" value="&lt;font&gt;输入账号（学/工号）&lt;/font&gt;&lt;div&gt;&lt;font&gt;和密码&lt;/font&gt;&lt;/div&gt;" style="shape=parallelogram;perimeter=parallelogramPerimeter;whiteSpace=wrap;html=1;fixedSize=1;size=30.999989827474053;strokeWidth=1;fontFamily=宋体;fontSize=20;" vertex="1" parent="1">
          <mxGeometry x="1310.63" y="1395" width="235.25" height="80" as="geometry" />
        </mxCell>
        <mxCell id="jGFvWOt6PlKy6V6tAk1P-3" value="&lt;font&gt;判断数据格式&lt;/font&gt;&lt;div&gt;&lt;font&gt;是否正确？&lt;/font&gt;&lt;/div&gt;" style="shape=mxgraph.flowchart.decision;strokeWidth=1;gradientColor=none;gradientDirection=north;fontStyle=0;html=1;strokeColor=default;align=center;verticalAlign=middle;fontFamily=宋体;fontSize=20;fontColor=default;fillColor=default;" vertex="1" parent="1">
          <mxGeometry x="1322" y="1510" width="212.5" height="80" as="geometry" />
        </mxCell>
        <mxCell id="jGFvWOt6PlKy6V6tAk1P-4" style="fontStyle=1;strokeColor=#003366;strokeWidth=1;html=1;fontFamily=宋体;fontSize=20;" edge="1" parent="1" source="jGFvWOt6PlKy6V6tAk1P-1" target="jGFvWOt6PlKy6V6tAk1P-2">
          <mxGeometry relative="1" as="geometry" />
        </mxCell>
        <mxCell id="jGFvWOt6PlKy6V6tAk1P-5" style="entryX=0.5;entryY=0;entryPerimeter=0;fontStyle=1;strokeColor=#003366;strokeWidth=1;html=1;exitX=0.5;exitY=1;exitDx=0;exitDy=0;exitPerimeter=0;fontFamily=宋体;fontSize=20;" edge="1" parent="1" source="jGFvWOt6PlKy6V6tAk1P-2" target="jGFvWOt6PlKy6V6tAk1P-3">
          <mxGeometry relative="1" as="geometry">
            <mxPoint x="1428.25" y="1600" as="sourcePoint" />
          </mxGeometry>
        </mxCell>
        <mxCell id="jGFvWOt6PlKy6V6tAk1P-6" value="&lt;font&gt;是&lt;/font&gt;" style="text;fontStyle=0;html=1;strokeColor=none;gradientColor=none;fillColor=none;strokeWidth=2;fontFamily=宋体;fontSize=20;" vertex="1" parent="1">
          <mxGeometry x="1429.25" y="1600" width="40" height="26" as="geometry" />
        </mxCell>
        <mxCell id="jGFvWOt6PlKy6V6tAk1P-7" value="" style="edgeStyle=elbowEdgeStyle;elbow=horizontal;fontColor=#001933;fontStyle=1;strokeColor=#003366;strokeWidth=1;html=1;exitX=0.5;exitY=1;exitDx=0;exitDy=0;exitPerimeter=0;entryX=0.5;entryY=0;entryDx=0;entryDy=0;entryPerimeter=0;fontFamily=宋体;fontSize=20;" edge="1" parent="1" source="jGFvWOt6PlKy6V6tAk1P-3" target="jGFvWOt6PlKy6V6tAk1P-10">
          <mxGeometry width="100" height="100" as="geometry">
            <mxPoint x="1428.22" y="1590" as="sourcePoint" />
            <mxPoint x="1428.22" y="1654" as="targetPoint" />
            <Array as="points">
              <mxPoint x="1428.22" y="1650" />
            </Array>
          </mxGeometry>
        </mxCell>
        <mxCell id="jGFvWOt6PlKy6V6tAk1P-8" style="edgeStyle=orthogonalEdgeStyle;rounded=0;orthogonalLoop=1;jettySize=auto;html=1;exitX=0.5;exitY=1;exitDx=0;exitDy=0;exitPerimeter=0;fontFamily=宋体;fontSize=20;" edge="1" parent="1" source="jGFvWOt6PlKy6V6tAk1P-10" target="jGFvWOt6PlKy6V6tAk1P-13">
          <mxGeometry relative="1" as="geometry" />
        </mxCell>
        <mxCell id="jGFvWOt6PlKy6V6tAk1P-9" value="" style="edgeStyle=orthogonalEdgeStyle;rounded=0;orthogonalLoop=1;jettySize=auto;html=1;entryX=0.997;entryY=0.523;entryDx=0;entryDy=0;entryPerimeter=0;fontFamily=宋体;fontSize=20;" edge="1" parent="1" source="jGFvWOt6PlKy6V6tAk1P-10" target="jGFvWOt6PlKy6V6tAk1P-22">
          <mxGeometry relative="1" as="geometry" />
        </mxCell>
        <mxCell id="jGFvWOt6PlKy6V6tAk1P-10" value="&lt;font&gt;判断账号&lt;/font&gt;&lt;div&gt;&lt;font&gt;是否存在？&lt;/font&gt;&lt;/div&gt;" style="shape=mxgraph.flowchart.decision;strokeWidth=1;gradientColor=none;gradientDirection=north;fontStyle=0;html=1;strokeColor=default;align=center;verticalAlign=middle;fontFamily=宋体;fontSize=20;fontColor=default;fillColor=default;" vertex="1" parent="1">
          <mxGeometry x="1341.5" y="1641" width="173.5" height="80" as="geometry" />
        </mxCell>
        <mxCell id="jGFvWOt6PlKy6V6tAk1P-11" style="edgeStyle=orthogonalEdgeStyle;rounded=0;orthogonalLoop=1;jettySize=auto;html=1;fontFamily=宋体;fontSize=20;" edge="1" parent="1" source="jGFvWOt6PlKy6V6tAk1P-13" target="jGFvWOt6PlKy6V6tAk1P-15">
          <mxGeometry relative="1" as="geometry" />
        </mxCell>
        <mxCell id="jGFvWOt6PlKy6V6tAk1P-12" style="edgeStyle=orthogonalEdgeStyle;rounded=0;orthogonalLoop=1;jettySize=auto;html=1;exitX=0;exitY=0.5;exitDx=0;exitDy=0;exitPerimeter=0;entryX=0.5;entryY=1;entryDx=0;entryDy=0;fontFamily=宋体;fontSize=20;" edge="1" parent="1" source="jGFvWOt6PlKy6V6tAk1P-13" target="jGFvWOt6PlKy6V6tAk1P-22">
          <mxGeometry relative="1" as="geometry" />
        </mxCell>
        <mxCell id="jGFvWOt6PlKy6V6tAk1P-13" value="&lt;font&gt;判断密码&lt;/font&gt;&lt;div&gt;&lt;font&gt;是否正确？&lt;/font&gt;&lt;/div&gt;" style="shape=mxgraph.flowchart.decision;strokeWidth=1;gradientColor=none;gradientDirection=north;fontStyle=0;html=1;strokeColor=default;align=center;verticalAlign=middle;fontFamily=宋体;fontSize=20;fontColor=default;fillColor=default;" vertex="1" parent="1">
          <mxGeometry x="1340.13" y="1765" width="176.25" height="80" as="geometry" />
        </mxCell>
        <mxCell id="jGFvWOt6PlKy6V6tAk1P-14" value="" style="edgeStyle=orthogonalEdgeStyle;rounded=0;orthogonalLoop=1;jettySize=auto;html=1;fontFamily=宋体;fontSize=20;" edge="1" parent="1" source="jGFvWOt6PlKy6V6tAk1P-15" target="jGFvWOt6PlKy6V6tAk1P-23">
          <mxGeometry relative="1" as="geometry" />
        </mxCell>
        <mxCell id="jGFvWOt6PlKy6V6tAk1P-15" value="&lt;font&gt;登录成功，返回数据JWT&lt;/font&gt;" style="rounded=0;whiteSpace=wrap;html=1;strokeColor=default;align=center;verticalAlign=middle;fontFamily=宋体;fontSize=20;fontColor=default;fillColor=default;" vertex="1" parent="1">
          <mxGeometry x="1360.25" y="1895" width="136" height="60" as="geometry" />
        </mxCell>
        <mxCell id="jGFvWOt6PlKy6V6tAk1P-16" value="&lt;font&gt;是&lt;/font&gt;" style="text;fontStyle=0;html=1;strokeColor=none;gradientColor=none;fillColor=none;strokeWidth=2;fontFamily=宋体;fontSize=20;" vertex="1" parent="1">
          <mxGeometry x="1429.25" y="1725" width="40" height="26" as="geometry" />
        </mxCell>
        <mxCell id="jGFvWOt6PlKy6V6tAk1P-17" value="&lt;font&gt;是&lt;/font&gt;" style="text;fontStyle=0;html=1;strokeColor=none;gradientColor=none;fillColor=none;strokeWidth=2;fontFamily=宋体;fontSize=20;" vertex="1" parent="1">
          <mxGeometry x="1429.25" y="1848" width="40" height="26" as="geometry" />
        </mxCell>
        <mxCell id="jGFvWOt6PlKy6V6tAk1P-18" style="edgeStyle=orthogonalEdgeStyle;rounded=0;orthogonalLoop=1;jettySize=auto;html=1;exitX=0.5;exitY=0;exitDx=0;exitDy=0;fontFamily=宋体;fontSize=20;" edge="1" parent="1" source="jGFvWOt6PlKy6V6tAk1P-21">
          <mxGeometry relative="1" as="geometry">
            <Array as="points">
              <mxPoint x="1588" y="1433" />
              <mxPoint x="1530" y="1433" />
            </Array>
            <mxPoint x="1530" y="1434" as="targetPoint" />
          </mxGeometry>
        </mxCell>
        <mxCell id="jGFvWOt6PlKy6V6tAk1P-19" value="&lt;font&gt;否&lt;/font&gt;" style="text;fontStyle=0;html=1;strokeColor=none;gradientColor=none;fillColor=none;strokeWidth=2;fontFamily=宋体;fontSize=20;" vertex="1" parent="1">
          <mxGeometry x="1553.25" y="1558" width="40" height="26" as="geometry" />
        </mxCell>
        <mxCell id="jGFvWOt6PlKy6V6tAk1P-20" value="" style="edgeStyle=orthogonalEdgeStyle;rounded=0;orthogonalLoop=1;jettySize=auto;html=1;exitX=1;exitY=0.5;exitDx=0;exitDy=0;exitPerimeter=0;entryX=0.49;entryY=1.005;entryDx=0;entryDy=0;fontFamily=宋体;fontSize=20;entryPerimeter=0;" edge="1" parent="1" source="jGFvWOt6PlKy6V6tAk1P-3" target="jGFvWOt6PlKy6V6tAk1P-21">
          <mxGeometry relative="1" as="geometry">
            <mxPoint x="1493.25" y="1555" as="sourcePoint" />
            <mxPoint x="1492.25" y="1440" as="targetPoint" />
            <Array as="points">
              <mxPoint x="1587" y="1550" />
              <mxPoint x="1587" y="1527" />
              <mxPoint x="1587" y="1527" />
            </Array>
          </mxGeometry>
        </mxCell>
        <mxCell id="jGFvWOt6PlKy6V6tAk1P-21" value="&lt;font&gt;返回格式错误&lt;/font&gt;" style="rounded=0;whiteSpace=wrap;html=1;strokeColor=default;align=center;verticalAlign=middle;fontFamily=宋体;fontSize=20;fontColor=default;fillColor=default;" vertex="1" parent="1">
          <mxGeometry x="1528.25" y="1464" width="120" height="60" as="geometry" />
        </mxCell>
        <mxCell id="jGFvWOt6PlKy6V6tAk1P-22" value="&lt;font&gt;登录失败，&lt;/font&gt;&lt;div&gt;&lt;font&gt;返回用户名&lt;span style=&quot;background-color: transparent;&quot;&gt;或&lt;/span&gt;&lt;/font&gt;&lt;div&gt;&lt;span style=&quot;background-color: transparent;&quot;&gt;&lt;font&gt;密码错误&lt;/font&gt;&lt;/span&gt;&lt;/div&gt;&lt;/div&gt;" style="rounded=0;whiteSpace=wrap;html=1;strokeColor=default;align=center;verticalAlign=middle;fontFamily=宋体;fontSize=20;fontColor=default;fillColor=default;" vertex="1" parent="1">
          <mxGeometry x="1185" y="1623" width="137" height="110" as="geometry" />
        </mxCell>
        <mxCell id="jGFvWOt6PlKy6V6tAk1P-23" value="&lt;font&gt;结束&lt;/font&gt;" style="shape=mxgraph.flowchart.terminator;strokeWidth=1;gradientColor=none;gradientDirection=north;fontStyle=0;html=1;fontFamily=宋体;fontSize=20;" vertex="1" parent="1">
          <mxGeometry x="1368.26" y="1983" width="120" height="30" as="geometry" />
        </mxCell>
        <mxCell id="jGFvWOt6PlKy6V6tAk1P-24" style="edgeStyle=orthogonalEdgeStyle;rounded=0;orthogonalLoop=1;jettySize=auto;html=1;fontFamily=宋体;fontSize=20;" edge="1" parent="1" source="jGFvWOt6PlKy6V6tAk1P-22" target="jGFvWOt6PlKy6V6tAk1P-2">
          <mxGeometry relative="1" as="geometry">
            <Array as="points">
              <mxPoint x="1253.25" y="1430" />
            </Array>
            <mxPoint x="1276.25" y="1417" as="targetPoint" />
          </mxGeometry>
        </mxCell>
        <mxCell id="jGFvWOt6PlKy6V6tAk1P-25" value="&lt;font&gt;否&lt;/font&gt;" style="text;fontStyle=0;html=1;strokeColor=none;gradientColor=none;fillColor=none;strokeWidth=2;fontFamily=宋体;fontSize=20;" vertex="1" parent="1">
          <mxGeometry x="1334.25" y="1648" width="40" height="26" as="geometry" />
        </mxCell>
        <mxCell id="jGFvWOt6PlKy6V6tAk1P-26" value="&lt;font&gt;否&lt;/font&gt;" style="text;fontStyle=0;html=1;strokeColor=none;gradientColor=none;fillColor=none;strokeWidth=2;fontFamily=宋体;fontSize=20;" vertex="1" parent="1">
          <mxGeometry x="1322" y="1773" width="40" height="26" as="geometry" />
        </mxCell>
      </root>
    </mxGraphModel>
  </diagram>
</mxfile>
